# xmcd CD database file
#
# Track frame offsets:
#	150
#	10540
#	25863
#	36484
#	47034
#	60616
#	72095
#	87968
#	102228
#	113127
#	122045
#	132631
#	145443
#	156195
#	167472
#	178933
#	191314
#	202300
#	212427
#	226041
#	238227
#	256843
#	267995
#
# Disc length: 3710 seconds
#
# Revision: 3
# Processed by: cddbd v1.5.2PL0 Copyright (c) Steve Scherf et al.
# Submitted via: jetAudio 7
#
DISCID=470e7c17
DTITLE=Jerry Reed - Better Things In Life and Cookin'
DYEAR=1972
DGENRE=Country
TTITLE0=Roving Gambler
TTITLE1=Pride Today
TTITLE2=The Likes Of Me
TTITLE3=Blues Land
TTITLE4=Coming Up Roses
TTITLE5=Johnny Wants To Be A Star
TTITLE6=There's Better Things In Life
TTITLE7=Oh What A Woman!
TTITLE8=Patches Of Blue
TTITLE9=Swinging '69
TTITLE10=Someday You'll Call My Name
TTITLE11=I'm A Happy Man
TTITLE12=Turn It Around In Your Mind
TTITLE13=How Many Tomorrows
TTITLE14=Sometimes Feelin'
TTITLE15=Just To Satisfy You
TTITLE16=Plastic Saddle
TTITLE17=I Shoulda Stayed Home
TTITLE18=Alabama Jubilee
TTITLE19=Aunt Maudie's Fun Garden
TTITLE20=The Semi-Great Predictor
TTITLE21=My Next Impersonation
TTITLE22=Gomyeyonyo
EXTD=YEAR: 1972
EXTT0=
EXTT1=
EXTT2=
EXTT3=
EXTT4=
EXTT5=
EXTT6=
EXTT7=
EXTT8=
EXTT9=
EXTT10=
EXTT11=
EXTT12=
EXTT13=
EXTT14=
EXTT15=
EXTT16=
EXTT17=
EXTT18=
EXTT19=
EXTT20=
EXTT21=
EXTT22=
PLAYORDER=
